<svg width="250" height="150" viewBox="0 0 250 150" fill="none" xmlns="http://www.w3.org/2000/svg">
<rect width="250" height="150" rx="10" fill="url(#paint0_linear_37_2)"/>
<g filter="url(#filter0_d_37_2)">
<path d="M47.8 51.42C47.8 53.1667 47.3467 54.6867 46.44 55.98C45.5333 57.26 44.2467 58.2533 42.58 58.96C40.9267 59.6533 38.9667 60 36.7 60C35.1533 60 33.78 59.84 32.58 59.52C31.38 59.1867 30.3133 58.72 29.38 58.12L29.64 56.26C30.16 56.62 30.6733 56.9133 31.18 57.14C31.7 57.3667 32.2333 57.54 32.78 57.66C33.34 57.7667 33.9333 57.82 34.56 57.82C35.6533 57.82 36.6333 57.5733 37.5 57.08C38.38 56.5867 39.0733 55.8533 39.58 54.88C40.1 53.8933 40.36 52.6733 40.36 51.22C40.36 49.54 40.06 48.1 39.46 46.9C38.8733 45.6867 38.0533 44.7533 37 44.1C35.9467 43.4333 34.74 43.1 33.38 43.1H32.32V65.54C32.32 65.8333 32.3933 66.08 32.54 66.28C32.7 66.4667 32.9533 66.5933 33.3 66.66L34.76 66.92C35.0933 66.9867 35.3333 67.1067 35.48 67.28C35.6267 67.4533 35.7 67.7 35.7 68.02C35.7 68.3133 35.5933 68.5533 35.38 68.74C35.18 68.9133 34.8667 69 34.44 69H23.12C22.68 69 22.3533 68.9133 22.14 68.74C21.94 68.5533 21.84 68.3067 21.84 68C21.84 67.48 22.12 67.12 22.68 66.92L23.7 66.66C24.0333 66.5533 24.28 66.4133 24.44 66.24C24.6 66.0533 24.68 65.82 24.68 65.54V44.48C24.68 44.1867 24.6 43.9467 24.44 43.76C24.28 43.5733 24.0333 43.4333 23.7 43.34L22.66 43.06C22.1133 42.8733 21.84 42.52 21.84 42C21.84 41.68 21.94 41.4333 22.14 41.26C22.3533 41.0867 22.6733 41 23.1 41H33.56C36.56 41 39.12 41.4467 41.24 42.34C43.36 43.22 44.98 44.4467 46.1 46.02C47.2333 47.5933 47.8 49.3933 47.8 51.42ZM58.2681 58.3C58.2681 56.3533 58.5348 54.7333 59.0681 53.44C59.6148 52.1467 60.3281 51.18 61.2081 50.54C62.0881 49.9 63.0348 49.58 64.0481 49.58C65.3415 49.58 66.3348 49.9667 67.0281 50.74C67.7348 51.5 68.0881 52.6267 68.0881 54.12C68.0881 55.56 67.7881 56.6267 67.1881 57.32C66.6015 58 65.8348 58.34 64.8881 58.34C63.9548 58.34 63.2481 58.0933 62.7681 57.6C62.3015 57.1067 62.0615 56.42 62.0481 55.54V54.76C62.0348 54.3867 61.9481 54.1067 61.7881 53.92C61.6281 53.72 61.3748 53.62 61.0281 53.62C60.6548 53.62 60.3081 53.78 59.9881 54.1C59.6815 54.4067 59.4281 54.8933 59.2281 55.56C59.0415 56.2133 58.9481 57.0733 58.9481 58.14L58.2681 58.3ZM58.5681 51L58.9481 55.66V65.66C58.9481 66.0333 59.0148 66.3133 59.1481 66.5C59.2815 66.6733 59.5481 66.8 59.9481 66.88L61.6281 67.18C61.9348 67.2333 62.1615 67.3333 62.3081 67.48C62.4548 67.6267 62.5281 67.8333 62.5281 68.1C62.5281 68.38 62.4281 68.6 62.2281 68.76C62.0415 68.92 61.7548 69 61.3681 69H51.2281C50.8281 69 50.5348 68.92 50.3481 68.76C50.1748 68.6 50.0881 68.3867 50.0881 68.12C50.0881 67.92 50.1415 67.7467 50.2481 67.6C50.3681 67.44 50.5548 67.3133 50.8081 67.22L51.4481 67.02C51.6748 66.94 51.8348 66.8067 51.9281 66.62C52.0215 66.4333 52.0681 66.1267 52.0681 65.7V54.68C52.0681 54.3333 52.0148 54.0867 51.9081 53.94C51.8148 53.7933 51.6615 53.7 51.4481 53.66L50.6481 53.56C50.4215 53.4933 50.2548 53.4 50.1481 53.28C50.0415 53.1467 49.9881 52.98 49.9881 52.78C49.9881 52.54 50.0548 52.3467 50.1881 52.2C50.3348 52.0533 50.5881 51.92 50.9481 51.8L55.3281 50.28C56.0215 50.0133 56.5215 49.8467 56.8281 49.78C57.1481 49.7 57.4015 49.66 57.5881 49.66C57.8815 49.66 58.1015 49.7667 58.2481 49.98C58.4081 50.18 58.5148 50.52 58.5681 51ZM80.5747 49.58C82.6814 49.58 84.528 50.0067 86.1147 50.86C87.7147 51.7 88.9614 52.8733 89.8547 54.38C90.748 55.8867 91.1947 57.6333 91.1947 59.62C91.1947 61.4867 90.728 63.1667 89.7947 64.66C88.8747 66.1533 87.5947 67.3333 85.9547 68.2C84.328 69.0667 82.448 69.5 80.3147 69.5C78.1947 69.5 76.3347 69.08 74.7347 68.24C73.148 67.3867 71.908 66.2133 71.0147 64.72C70.1347 63.2133 69.6947 61.4733 69.6947 59.5C69.6947 57.6067 70.1547 55.9133 71.0747 54.42C72.008 52.9267 73.288 51.7467 74.9147 50.88C76.5414 50.0133 78.428 49.58 80.5747 49.58ZM81.9547 67.34C82.648 67.22 83.1947 66.8333 83.5947 66.18C84.008 65.5267 84.248 64.6 84.3147 63.4C84.3814 62.2 84.248 60.72 83.9147 58.96C83.5947 57.2267 83.188 55.8067 82.6947 54.7C82.2014 53.5933 81.6347 52.7933 80.9947 52.3C80.3547 51.8067 79.668 51.6267 78.9347 51.76C78.228 51.88 77.6747 52.2667 77.2747 52.92C76.8747 53.5733 76.6414 54.5 76.5747 55.7C76.5214 56.8867 76.6547 58.3667 76.9747 60.14C77.2947 61.86 77.7014 63.28 78.1947 64.4C78.7014 65.5067 79.268 66.3067 79.8947 66.8C80.5347 67.28 81.2214 67.46 81.9547 67.34ZM107.704 65.76L107.504 65.7V44.04C107.504 43.7067 107.45 43.4667 107.344 43.32C107.25 43.1733 107.097 43.08 106.884 43.04L106.104 42.94C105.864 42.8733 105.69 42.78 105.584 42.66C105.49 42.5267 105.444 42.36 105.444 42.16C105.444 41.92 105.51 41.7333 105.644 41.6C105.777 41.4533 106.024 41.3133 106.384 41.18L110.864 39.6C111.384 39.4 111.797 39.26 112.104 39.18C112.424 39.0867 112.737 39.04 113.044 39.04C113.484 39.04 113.817 39.1667 114.044 39.42C114.27 39.66 114.384 39.98 114.384 40.38V65.68C114.384 66.1067 114.43 66.42 114.524 66.62C114.63 66.8067 114.784 66.94 114.984 67.02L115.644 67.22C115.897 67.3133 116.077 67.44 116.184 67.6C116.304 67.7467 116.364 67.92 116.364 68.12C116.364 68.3867 116.27 68.6 116.084 68.76C115.897 68.92 115.61 69 115.224 69H110.244C109.55 69 108.95 68.76 108.444 68.28C107.95 67.8 107.704 67.2067 107.704 66.5V65.76ZM93.4838 60.12C93.4838 58 93.9104 56.1533 94.7638 54.58C95.6171 52.9933 96.7771 51.7667 98.2438 50.9C99.7104 50.02 101.357 49.58 103.184 49.58C104.744 49.58 106.09 49.92 107.224 50.6C108.37 51.2667 109.337 52.2667 110.124 53.6L108.564 54.74C107.977 53.8067 107.357 53.12 106.704 52.68C106.05 52.24 105.33 52.02 104.544 52.02C103.784 52.02 103.104 52.2733 102.504 52.78C101.917 53.2733 101.45 54.0667 101.104 55.16C100.77 56.24 100.604 57.66 100.604 59.42C100.604 61.0467 100.77 62.3667 101.104 63.38C101.437 64.3933 101.89 65.1467 102.464 65.64C103.037 66.12 103.69 66.36 104.424 66.36C105.237 66.36 105.997 66.1067 106.704 65.6C107.41 65.08 108.07 64.2667 108.684 63.16L109.704 64.26C108.637 65.9133 107.437 67.2 106.104 68.12C104.784 69.04 103.297 69.5 101.644 69.5C100.07 69.5 98.6704 69.1067 97.4438 68.32C96.2171 67.5333 95.2504 66.44 94.5438 65.04C93.8371 63.6267 93.4838 61.9867 93.4838 60.12ZM132.885 65.98V65.02L132.685 64.96V54.66C132.685 54.3133 132.631 54.0667 132.525 53.92C132.431 53.7733 132.278 53.68 132.065 53.64L131.285 53.54C131.045 53.4733 130.871 53.38 130.765 53.26C130.671 53.1267 130.625 52.96 130.625 52.76C130.625 52.52 130.691 52.3333 130.825 52.2C130.958 52.0533 131.205 51.9133 131.565 51.78L136.045 50.2C136.565 50 136.985 49.86 137.305 49.78C137.625 49.6867 137.931 49.64 138.225 49.64C138.665 49.64 138.998 49.7667 139.225 50.02C139.451 50.26 139.565 50.58 139.565 50.98V65.68C139.565 66.1067 139.611 66.42 139.705 66.62C139.811 66.8067 139.971 66.94 140.185 67.02L140.825 67.22C141.078 67.3133 141.258 67.44 141.365 67.6C141.485 67.7467 141.545 67.92 141.545 68.12C141.545 68.3867 141.451 68.6 141.265 68.76C141.091 68.92 140.805 69 140.405 69H135.565C134.831 69 134.198 68.7067 133.665 68.12C133.145 67.5333 132.885 66.82 132.885 65.98ZM120.125 63.48V54.66C120.125 54.3133 120.071 54.0667 119.965 53.92C119.871 53.7733 119.718 53.68 119.505 53.64L118.725 53.54C118.485 53.4733 118.311 53.38 118.205 53.26C118.111 53.1267 118.065 52.96 118.065 52.76C118.065 52.52 118.131 52.3333 118.265 52.2C118.398 52.0533 118.645 51.9133 119.005 51.78L123.485 50.2C124.031 49.9867 124.458 49.84 124.765 49.76C125.085 49.68 125.365 49.64 125.605 49.64C126.071 49.64 126.418 49.7667 126.645 50.02C126.885 50.26 127.005 50.58 127.005 50.98V62.54C127.005 63.54 127.238 64.2933 127.705 64.8C128.185 65.2933 128.831 65.54 129.645 65.54C130.151 65.54 130.685 65.4267 131.245 65.2C131.805 64.9733 132.351 64.6333 132.885 64.18L133.645 63.52L134.565 64.5L133.865 65.14C132.131 66.7533 130.618 67.8867 129.325 68.54C128.031 69.18 126.825 69.5 125.705 69.5C124.051 69.5 122.705 68.96 121.665 67.88C120.638 66.7867 120.125 65.32 120.125 63.48ZM162.495 55.3C162.495 56.18 162.182 56.92 161.555 57.52C160.942 58.12 160.109 58.42 159.055 58.42C158.042 58.42 157.269 58.14 156.735 57.58C156.202 57.0067 155.935 56.2667 155.935 55.36V54.56C155.935 53.68 155.715 52.9867 155.275 52.48C154.835 51.96 154.242 51.7 153.495 51.7C152.842 51.7 152.249 51.92 151.715 52.36C151.195 52.7867 150.782 53.4267 150.475 54.28C150.169 55.1333 150.015 56.1733 150.015 57.4C150.015 59.0267 150.282 60.4 150.815 61.52C151.349 62.6267 152.082 63.4667 153.015 64.04C153.962 64.6 155.035 64.88 156.235 64.88C157.262 64.88 158.162 64.7 158.935 64.34C159.722 63.98 160.382 63.4133 160.915 62.64C161.182 62.3733 161.389 62.1933 161.535 62.1C161.682 62.0067 161.835 61.96 161.995 61.96C162.195 61.96 162.342 62.06 162.435 62.26C162.529 62.46 162.575 62.7 162.575 62.98C162.509 64.18 162.095 65.28 161.335 66.28C160.589 67.2667 159.569 68.0533 158.275 68.64C156.995 69.2133 155.509 69.5 153.815 69.5C151.895 69.5 150.182 69.1133 148.675 68.34C147.169 67.5667 145.982 66.4733 145.115 65.06C144.249 63.6333 143.815 61.9533 143.815 60.02C143.815 58.0333 144.249 56.2533 145.115 54.68C145.982 53.1067 147.195 51.8667 148.755 50.96C150.329 50.04 152.175 49.58 154.295 49.58C156.002 49.58 157.469 49.84 158.695 50.36C159.922 50.8667 160.862 51.5533 161.515 52.42C162.169 53.2867 162.495 54.2467 162.495 55.3ZM165.832 52.14L164.932 51.84C164.652 51.7467 164.452 51.6333 164.332 51.5C164.212 51.3533 164.152 51.18 164.152 50.98C164.152 50.7 164.245 50.4867 164.432 50.34C164.632 50.18 164.885 50.1 165.192 50.1H166.432C166.685 50.1 166.905 50.0467 167.092 49.94C167.292 49.8333 167.512 49.6333 167.752 49.34L170.812 46.04C171.132 45.6933 171.432 45.44 171.712 45.28C171.992 45.1067 172.265 45.02 172.532 45.02C172.825 45.02 173.059 45.12 173.232 45.32C173.405 45.5067 173.492 45.78 173.492 46.14V62.7C173.492 63.6867 173.672 64.4333 174.032 64.94C174.392 65.4467 174.899 65.7 175.552 65.7C176.005 65.7 176.365 65.6 176.632 65.4C176.899 65.2 177.112 64.9667 177.272 64.7C177.445 64.42 177.612 64.1667 177.772 63.94C177.945 63.7 178.159 63.5467 178.412 63.48C178.612 63.4667 178.772 63.5267 178.892 63.66C179.025 63.7933 179.092 64.0267 179.092 64.36C179.052 65.32 178.759 66.1867 178.212 66.96C177.665 67.7333 176.912 68.3467 175.952 68.8C175.005 69.24 173.912 69.46 172.672 69.46C170.752 69.46 169.265 69 168.212 68.08C167.159 67.1467 166.632 65.7333 166.632 63.84V53.24C166.632 52.92 166.572 52.68 166.452 52.52C166.332 52.36 166.125 52.2333 165.832 52.14ZM171.032 52.2L171.072 50.1H177.912C178.232 50.1 178.479 50.1667 178.652 50.3C178.839 50.4333 178.932 50.6267 178.932 50.88C178.932 51.2533 178.745 51.5667 178.372 51.82C178.012 52.0733 177.419 52.2 176.592 52.2H171.032ZM46.96 101.14C46.9333 102.18 46.6467 103.213 46.1 104.24C45.5667 105.253 44.8 106.18 43.8 107.02C42.8 107.847 41.5933 108.507 40.18 109C38.78 109.493 37.2 109.74 35.44 109.74C32.5467 109.74 30.04 109.127 27.92 107.9C25.8133 106.66 24.1867 104.947 23.04 102.76C21.8933 100.573 21.32 98.0533 21.32 95.2C21.32 93.04 21.66 91.0533 22.34 89.24C23.0333 87.4267 24 85.8533 25.24 84.52C26.48 83.1733 27.9333 82.1333 29.6 81.4C31.28 80.6533 33.1 80.28 35.06 80.28C36.34 80.28 37.38 80.4 38.18 80.64C38.9933 80.88 39.64 81.1267 40.12 81.38C40.6 81.62 40.9733 81.74 41.24 81.74C41.5733 81.74 41.86 81.6333 42.1 81.42C42.34 81.1933 42.58 80.9667 42.82 80.74C43.06 80.5133 43.34 80.4 43.66 80.4C43.9133 80.4 44.12 80.4867 44.28 80.66C44.4533 80.82 44.5933 81.0933 44.7 81.48L46.76 88.68C46.8533 89 46.82 89.2867 46.66 89.54C46.5 89.7933 46.26 89.9533 45.94 90.02C45.5933 90.1 45.28 90.0733 45 89.94C44.7333 89.8067 44.5267 89.5667 44.38 89.22C43.66 87.5533 42.8733 86.2467 42.02 85.3C41.1667 84.34 40.26 83.66 39.3 83.26C38.34 82.8467 37.3333 82.64 36.28 82.64C35.2 82.64 34.22 82.8933 33.34 83.4C32.46 83.9067 31.7 84.64 31.06 85.6C30.42 86.5467 29.9267 87.6933 29.58 89.04C29.2333 90.3867 29.06 91.9067 29.06 93.6C29.06 96.28 29.44 98.5333 30.2 100.36C30.96 102.173 32 103.54 33.32 104.46C34.6533 105.38 36.1867 105.84 37.92 105.84C39.5333 105.84 40.9667 105.427 42.22 104.6C43.4733 103.76 44.4467 102.553 45.14 100.98C45.3 100.66 45.4733 100.447 45.66 100.34C45.86 100.233 46.08 100.2 46.32 100.24C46.5467 100.28 46.7067 100.38 46.8 100.54C46.9067 100.687 46.96 100.887 46.96 101.14ZM61.265 106.48V106.08L60.785 106.06V93.44C60.785 92.72 60.5983 92.16 60.225 91.76C59.865 91.3467 59.3583 91.14 58.705 91.14C58.1317 91.14 57.6717 91.2733 57.325 91.54C56.9917 91.8067 56.825 92.14 56.825 92.54V94.5C56.825 95.4333 56.505 96.1667 55.865 96.7C55.225 97.22 54.325 97.48 53.165 97.48C52.205 97.48 51.4783 97.26 50.985 96.82C50.4917 96.38 50.245 95.7667 50.245 94.98C50.245 94.14 50.605 93.3067 51.325 92.48C52.045 91.6533 53.1183 90.9733 54.545 90.44C55.985 89.8933 57.7717 89.62 59.905 89.62C62.505 89.62 64.4383 90.12 65.705 91.12C66.985 92.12 67.625 93.4933 67.625 95.24V105.24C67.625 105.573 67.6917 105.827 67.825 106C67.9717 106.173 68.1783 106.26 68.445 106.26C68.6983 106.26 68.8983 106.193 69.045 106.06C69.1917 105.927 69.3183 105.78 69.425 105.62C69.505 105.527 69.5783 105.453 69.645 105.4C69.725 105.347 69.825 105.32 69.945 105.32C70.105 105.32 70.225 105.38 70.305 105.5C70.385 105.62 70.425 105.78 70.425 105.98C70.425 106.46 70.245 106.973 69.885 107.52C69.5383 108.067 69.005 108.533 68.285 108.92C67.565 109.307 66.665 109.5 65.585 109.5C64.265 109.5 63.2117 109.22 62.425 108.66C61.6517 108.1 61.265 107.373 61.265 106.48ZM49.425 104.82C49.425 103.113 50.185 101.753 51.705 100.74C53.225 99.7133 55.405 99.2 58.245 99.2C59.0583 99.2 59.765 99.2667 60.365 99.4C60.9783 99.52 61.505 99.6933 61.945 99.92L61.445 101.22C61.0717 101.033 60.705 100.893 60.345 100.8C59.985 100.707 59.585 100.66 59.145 100.66C58.2783 100.66 57.5983 100.92 57.105 101.44C56.6117 101.96 56.365 102.7 56.365 103.66C56.365 104.633 56.5917 105.373 57.045 105.88C57.4983 106.373 58.085 106.62 58.805 106.62C59.3383 106.62 59.8517 106.493 60.345 106.24C60.8383 105.987 61.2383 105.653 61.545 105.24L61.965 106.42C61.2983 107.407 60.365 108.167 59.165 108.7C57.965 109.233 56.6917 109.5 55.345 109.5C53.585 109.5 52.1583 109.06 51.065 108.18C49.9717 107.3 49.425 106.18 49.425 104.82ZM80.1822 98.3C80.1822 96.3533 80.4489 94.7333 80.9822 93.44C81.5289 92.1467 82.2422 91.18 83.1222 90.54C84.0022 89.9 84.9489 89.58 85.9622 89.58C87.2555 89.58 88.2489 89.9667 88.9422 90.74C89.6489 91.5 90.0022 92.6267 90.0022 94.12C90.0022 95.56 89.7022 96.6267 89.1022 97.32C88.5155 98 87.7489 98.34 86.8022 98.34C85.8689 98.34 85.1622 98.0933 84.6822 97.6C84.2155 97.1067 83.9755 96.42 83.9622 95.54V94.76C83.9489 94.3867 83.8622 94.1067 83.7022 93.92C83.5422 93.72 83.2889 93.62 82.9422 93.62C82.5689 93.62 82.2222 93.78 81.9022 94.1C81.5955 94.4067 81.3422 94.8933 81.1422 95.56C80.9555 96.2133 80.8622 97.0733 80.8622 98.14L80.1822 98.3ZM80.4822 91L80.8622 95.66V105.66C80.8622 106.033 80.9289 106.313 81.0622 106.5C81.1955 106.673 81.4622 106.8 81.8622 106.88L83.5422 107.18C83.8489 107.233 84.0755 107.333 84.2222 107.48C84.3689 107.627 84.4422 107.833 84.4422 108.1C84.4422 108.38 84.3422 108.6 84.1422 108.76C83.9555 108.92 83.6689 109 83.2822 109H73.1422C72.7422 109 72.4489 108.92 72.2622 108.76C72.0889 108.6 72.0022 108.387 72.0022 108.12C72.0022 107.92 72.0555 107.747 72.1622 107.6C72.2822 107.44 72.4689 107.313 72.7222 107.22L73.3622 107.02C73.5889 106.94 73.7489 106.807 73.8422 106.62C73.9355 106.433 73.9822 106.127 73.9822 105.7V94.68C73.9822 94.3333 73.9289 94.0867 73.8222 93.94C73.7289 93.7933 73.5755 93.7 73.3622 93.66L72.5622 93.56C72.3355 93.4933 72.1689 93.4 72.0622 93.28C71.9555 93.1467 71.9022 92.98 71.9022 92.78C71.9022 92.54 71.9689 92.3467 72.1022 92.2C72.2489 92.0533 72.5022 91.92 72.8622 91.8L77.2422 90.28C77.9355 90.0133 78.4355 89.8467 78.7422 89.78C79.0622 89.7 79.3155 89.66 79.5022 89.66C79.7955 89.66 80.0155 89.7667 80.1622 89.98C80.3222 90.18 80.4289 90.52 80.4822 91ZM105.829 105.76L105.629 105.7V84.04C105.629 83.7067 105.575 83.4667 105.469 83.32C105.375 83.1733 105.222 83.08 105.009 83.04L104.229 82.94C103.989 82.8733 103.815 82.78 103.709 82.66C103.615 82.5267 103.569 82.36 103.569 82.16C103.569 81.92 103.635 81.7333 103.769 81.6C103.902 81.4533 104.149 81.3133 104.509 81.18L108.989 79.6C109.509 79.4 109.922 79.26 110.229 79.18C110.549 79.0867 110.862 79.04 111.169 79.04C111.609 79.04 111.942 79.1667 112.169 79.42C112.395 79.66 112.509 79.98 112.509 80.38V105.68C112.509 106.107 112.555 106.42 112.649 106.62C112.755 106.807 112.909 106.94 113.109 107.02L113.769 107.22C114.022 107.313 114.202 107.44 114.309 107.6C114.429 107.747 114.489 107.92 114.489 108.12C114.489 108.387 114.395 108.6 114.209 108.76C114.022 108.92 113.735 109 113.349 109H108.369C107.675 109 107.075 108.76 106.569 108.28C106.075 107.8 105.829 107.207 105.829 106.5V105.76ZM91.6088 100.12C91.6088 98 92.0354 96.1533 92.8888 94.58C93.7421 92.9933 94.9021 91.7667 96.3688 90.9C97.8354 90.02 99.4821 89.58 101.309 89.58C102.869 89.58 104.215 89.92 105.349 90.6C106.495 91.2667 107.462 92.2667 108.249 93.6L106.689 94.74C106.102 93.8067 105.482 93.12 104.829 92.68C104.175 92.24 103.455 92.02 102.669 92.02C101.909 92.02 101.229 92.2733 100.629 92.78C100.042 93.2733 99.5754 94.0667 99.2288 95.16C98.8954 96.24 98.7288 97.66 98.7288 99.42C98.7288 101.047 98.8954 102.367 99.2288 103.38C99.5621 104.393 100.015 105.147 100.589 105.64C101.162 106.12 101.815 106.36 102.549 106.36C103.362 106.36 104.122 106.107 104.829 105.6C105.535 105.08 106.195 104.267 106.809 103.16L107.829 104.26C106.762 105.913 105.562 107.2 104.229 108.12C102.909 109.04 101.422 109.5 99.7688 109.5C98.1954 109.5 96.7954 109.107 95.5688 108.32C94.3421 107.533 93.3754 106.44 92.6688 105.04C91.9621 103.627 91.6088 101.987 91.6088 100.12Z" fill="#F2EBE3"/>
</g>
<defs>
<filter id="filter0_d_37_2" x="17.32" y="39.04" width="165.772" height="78.7" filterUnits="userSpaceOnUse" color-interpolation-filters="sRGB">
<feFlood flood-opacity="0" result="BackgroundImageFix"/>
<feColorMatrix in="SourceAlpha" type="matrix" values="0 0 0 0 0 0 0 0 0 0 0 0 0 0 0 0 0 0 127 0" result="hardAlpha"/>
<feOffset dy="4"/>
<feGaussianBlur stdDeviation="2"/>
<feComposite in2="hardAlpha" operator="out"/>
<feColorMatrix type="matrix" values="0 0 0 0 0.117647 0 0 0 0 0.117647 0 0 0 0 0.117647 0 0 0 1 0"/>
<feBlend mode="normal" in2="BackgroundImageFix" result="effect1_dropShadow_37_2"/>
<feBlend mode="normal" in="SourceGraphic" in2="effect1_dropShadow_37_2" result="shape"/>
</filter>
<linearGradient id="paint0_linear_37_2" x1="125" y1="0" x2="125" y2="150" gradientUnits="userSpaceOnUse">
<stop stop-color="#3C8067"/>
<stop offset="1" stop-color="#224D3D"/>
</linearGradient>
</defs>
</svg>
